<?xml version="1.0" encoding="utf-8"?>
<!-- Generator: Adobe Illustrator 23.1.1, SVG Export Plug-In . SVG Version: 6.00 Build 0)  -->
<svg version="1.1" id="Capa_1" xmlns="http://www.w3.org/2000/svg" xmlns:xlink="http://www.w3.org/1999/xlink" x="0px" y="0px"
	 viewBox="0 0 546.5 101.5" style="enable-background:new 0 0 546.5 101.5;" xml:space="preserve">
<style type="text/css">
	.st0{fill:#D4000F;}
	.st1{fill:#FFFFFF;}
</style>
<g>
	<rect class="st0" width="546.5" height="101.5"/>
	<g>
		<path class="st1" d="M345.6,35.7v8.4h-2V24.2h4.6c2.3,0,4,0.4,5.1,1.3c1.3,1,1.9,2.6,1.9,4.8c0,1.7-0.6,3.1-1.9,4
			c-1.4,1-3.7,1.5-6.8,1.5c-0.1,0-0.2,0-0.4,0c-0.2,0-0.3,0-0.3,0H345.6z M345.6,26.1v7.7h2.8c1.6,0,2.8-0.4,3.6-1.1
			c0.7-0.7,1.1-1.6,1.1-2.9c0-1.2-0.4-2.2-1.1-2.7c-0.9-0.6-2.3-1-4.5-1h-1.1c0,0-0.2,0-0.3,0C345.9,26.1,345.7,26.1,345.6,26.1z"/>
		<path class="st1" d="M363.2,26.2h-2.9v18h-1.9V24.2h5.3c1.9,0,3.5,0.3,4.7,1c1,0.6,1.7,1.4,2.2,2.5c0.4,0.8,0.5,1.8,0.5,2.9
			c0,1.7-0.5,3-1.5,4.1c-0.9,0.9-2,1.5-3.3,1.7l4.9,7.8l-2.3,0l-5.9-9.6c2.1,0,3.6-0.3,4.5-0.8c1.1-0.6,1.6-1.7,1.6-3.3
			c0-0.8-0.1-1.4-0.3-1.9c-0.3-0.7-0.9-1.3-1.6-1.7C366.1,26.4,364.9,26.2,363.2,26.2z"/>
		<path class="st1" d="M373.9,34.1c0-1.5,0.3-3,1-4.5c0.8-1.7,1.9-3,3.3-4c1.7-1.2,3.7-1.7,6.1-1.7c1.5,0,3,0.3,4.3,0.9
			c1.7,0.7,3,1.9,4,3.4c1.2,1.8,1.7,4.2,1.7,7c-0.3,2.7-1.4,5-3.3,6.7c-1.9,1.8-4.3,2.7-6.9,2.7c-2.9,0-5.4-1.1-7.4-3.2
			C374.9,39.3,373.9,36.9,373.9,34.1z M376,34.1c0,2.4,0.7,4.3,2.2,6c1.5,1.7,3.5,2.6,5.9,2.6c2.1,0,3.9-0.7,5.4-2.1
			c1.6-1.5,2.5-3.3,2.8-5.5c0-1.4-0.2-2.8-0.7-4.1c-0.6-1.5-1.4-2.7-2.6-3.6c-1.3-1-2.9-1.5-4.8-1.5c-1.3,0-2.5,0.3-3.7,0.9
			c-1.3,0.7-2.3,1.6-3.1,2.8C376.5,30.7,376,32.3,376,34.1z"/>
		<path class="st1" d="M402.9,44.1h-5.2V24.2h6c2.5,0,4.5,0.6,6.1,1.7c1.4,0.9,2.4,2.3,3.1,3.9c0.6,1.4,0.8,2.9,0.8,4.5
			c0,3-0.9,5.4-2.8,7.2C409,43.2,406.4,44.1,402.9,44.1z M403.8,26.1h-4.2v16.2h4.6c2.1,0,3.9-0.7,5.2-2.1c1.4-1.5,2.1-3.5,2.1-6
			c0-1.3-0.2-2.6-0.6-3.6c-0.5-1.3-1.3-2.4-2.3-3.1C407.4,26.6,405.8,26.1,403.8,26.1z"/>
		<path class="st1" d="M427.6,24.2h2v12.6c0,2.5-0.5,4.4-1.4,5.6c-1,1.4-2.7,2.1-5,2.1c-1.2,0-2.1-0.1-2.8-0.4
			c-1.1-0.4-1.9-1.1-2.5-2.1c-0.7-1.2-1.1-2.9-1.1-5.1V24.2h2v12c0,1.7,0.2,3,0.7,4c0.4,0.8,1,1.5,1.7,1.8c0.6,0.3,1.3,0.4,2.1,0.4
			c1.4,0,2.5-0.5,3.2-1.4c0.8-1,1.1-2.6,1.1-4.9V24.2z"/>
		<path class="st1" d="M451.9,29.4h-2.4c-0.6-0.8-1.2-1.4-1.7-1.8c-0.6-0.6-1.3-1-2.1-1.3c-0.8-0.3-1.7-0.5-2.7-0.5
			c-2.5,0-4.6,0.9-6.1,2.6c-1.5,1.6-2.2,3.5-2.2,5.8c0,2.4,0.8,4.4,2.4,6.1c1.6,1.7,3.5,2.5,5.8,2.5c1.3,0,2.4-0.2,3.3-0.7
			c1.1-0.5,2.1-1.4,3.2-2.7h2.3c-0.8,1.6-2,2.9-3.5,3.9c-1.5,1-3.3,1.4-5.2,1.4c-1.5,0-3-0.3-4.4-0.9c-1.7-0.7-3.1-1.7-4.1-3
			c-1.2-1.5-1.8-3.4-1.8-5.6c0-0.1,0-0.3,0-0.6c0-0.3,0-0.4,0-0.6c0-1.5,0.4-3,1.1-4.5c0.8-1.7,1.9-3,3.4-3.9
			c1.7-1.1,3.6-1.7,5.9-1.7c2.1,0,4,0.6,5.7,1.7C449.9,26.5,451.1,27.8,451.9,29.4z"/>
		<path class="st1" d="M463.6,26.2h-3.9v18h-2v-18h-4v-2h9.9V26.2z"/>
		<path class="st1" d="M465.3,34.1c0-1.5,0.3-3,1-4.5c0.8-1.7,1.9-3,3.3-4c1.7-1.2,3.7-1.7,6.1-1.7c1.5,0,3,0.3,4.3,0.9
			c1.7,0.7,3,1.9,4,3.4c1.2,1.8,1.7,4.2,1.7,7c-0.3,2.7-1.4,5-3.3,6.7c-1.9,1.8-4.3,2.7-6.9,2.7c-2.9,0-5.4-1.1-7.4-3.2
			C466.2,39.3,465.3,36.9,465.3,34.1z M467.4,34.1c0,2.4,0.7,4.3,2.2,6c1.5,1.7,3.5,2.6,5.9,2.6c2.1,0,3.9-0.7,5.4-2.1
			c1.6-1.5,2.5-3.3,2.8-5.5c0-1.4-0.2-2.8-0.7-4.1c-0.6-1.5-1.4-2.7-2.6-3.6c-1.3-1-2.9-1.5-4.8-1.5c-1.3,0-2.5,0.3-3.7,0.9
			c-1.3,0.7-2.3,1.6-3.1,2.8C467.8,30.7,467.4,32.3,467.4,34.1z"/>
		<path class="st1" d="M493.6,26.2h-2.9v18h-1.9V24.2h5.3c1.9,0,3.5,0.3,4.7,1c1,0.6,1.7,1.4,2.2,2.5c0.4,0.8,0.5,1.8,0.5,2.9
			c0,1.7-0.5,3-1.5,4.1c-0.9,0.9-2,1.5-3.3,1.7l4.9,7.8l-2.3,0l-5.9-9.6c2.1,0,3.6-0.3,4.6-0.8c1.1-0.6,1.6-1.7,1.6-3.3
			c0-0.8-0.1-1.4-0.3-1.9c-0.3-0.7-0.9-1.3-1.6-1.7C496.5,26.4,495.2,26.2,493.6,26.2z"/>
		<path class="st1" d="M516.1,37.9h-8.8l-2.4,6.2h-2l7.7-19.9h2.3l7.6,19.9h-2.1L516.1,37.9z M511.7,26.1l-3.7,10h7.5L511.7,26.1z"
			/>
	</g>
	<path class="st1" d="M186.1,88.7h-7l-34.3-31v-3.8h15.6c12.8,0,18.6-9.3,18.6-18c0-8.7-5.8-18-18.6-18h-21.9v70.7h-4.7V13.2h26.6
		c15.3,0,23.3,11.4,23.3,22.7c0,5.9-2.1,11.5-5.8,15.6c-4.2,4.7-10.3,7.1-17.4,7.1h-7.6L186.1,88.7z"/>
	<polygon class="st1" points="261.2,13.2 232,56.3 202.8,13.2 198.8,13.2 198.8,88.7 203.4,88.7 203.4,22.2 230.5,62.5 233.5,62.5 
		260.6,22.2 260.6,88.7 265.3,88.7 265.3,13.2 	"/>
	<path class="st1" d="M58,101.5l14.5-37.1H107l9.9,24.3h5.1L92.3,13.6L97.6,0h-5.1L52.6,101.5H58z M89.7,20.2l15.4,39.5H74.4
		L89.7,20.2z"/>
	<path class="st1" d="M546.5,64.4v-4.7H330l-18.8-47.6h-3.9L277,88.7h5.1l9.8-24.3h34.5l9.9,24.3h5.1l-9.6-24.3H546.5z M293.9,59.7
		l15.3-39.6l15.4,39.6H293.9z"/>
</g>
</svg>
