<?xml version="1.0" encoding="utf-8"?>
<!-- Generator: Adobe Illustrator 23.1.1, SVG Export Plug-In . SVG Version: 6.00 Build 0)  -->
<svg version="1.1" id="Capa_1" xmlns="http://www.w3.org/2000/svg" xmlns:xlink="http://www.w3.org/1999/xlink" x="0px" y="0px"
	 viewBox="0 0 667.7 667.7" style="enable-background:new 0 0 667.7 667.7;" xml:space="preserve">
<style type="text/css">
	.st0{fill:#E0A047;}
	.st1{fill:#C11629;}
	.st2{opacity:0.1;fill:#C31C33;}
	.st3{fill:#FFFFFF;}
	.st4{fill:#C31C33;}
	.st5{fill:#D78F33;}
</style>
<g>
	<path class="st0" d="M659,333.8L333.8,659l-3.5-3.5L8.6,333.8 M22.8,333.8l311.1,311.1l311.1-311.1"/>
</g>
<rect x="79.8" y="78.8" class="st1" width="508.1" height="508.1"/>
<polygon class="st3" points="206.7,300.1 189.4,300.1 187.8,300.1 164.1,353.5 140.5,300.1 137.9,300.1 121.6,300.1 103.4,300.1 
	103.4,426.8 137.9,426.8 137.9,339.9 164,403.9 164.1,404.4 164.1,404.3 164.2,404.4 164.3,403.9 189.4,342.3 189.4,426.8 
	223.9,426.8 223.9,300.1 "/>
<path class="st3" d="M316.7,426.8h34.5l-38.5-126.8h-10.8h-13h-9l-40.3,126.8h34.5l5.6-25.5h31.4L316.7,426.8z M284.9,377.6
	l10.5-47.9l10.5,47.9H284.9z"/>
<path class="st3" d="M425.1,300.1v91.2c0,8.3-6.7,15-15,15h0c-8.3,0-15-6.7-15-15v-91.2h-34.5v89.2c0,22.4,18.2,40.6,40.6,40.6h17.8
	c22.4,0,40.6-18.2,40.6-40.6v-89.2H425.1z"/>
<polygon class="st3" points="569.6,325.6 569.6,300.1 516,300.1 510.2,300.1 481.5,300.1 481.5,426.8 510.2,426.8 516,426.8 
	569.6,426.8 569.6,401.3 516,401.3 516,373.1 566.4,373.1 566.4,349.3 516,349.3 516,325.6 "/>
<g>
	<path class="st3" d="M392.6,293.6h-7.2l-2.8-7.4h-13l-2.7,7.4h-7l12.7-32.6h7L392.6,293.6z M380.5,280.7l-4.5-12.1l-4.4,12.1H380.5
		z"/>
	<path class="st3" d="M411.3,281.6v-5.5h14.2v13c-1.4,1.3-3.4,2.5-6,3.5c-2.6,1-5.3,1.5-7.9,1.5c-3.4,0-6.4-0.7-8.9-2.1
		c-2.5-1.4-4.4-3.5-5.7-6.1c-1.3-2.7-1.9-5.6-1.9-8.7c0-3.4,0.7-6.4,2.1-9c1.4-2.6,3.5-4.7,6.2-6.1c2.1-1.1,4.7-1.6,7.8-1.6
		c4,0,7.2,0.8,9.5,2.5c2.3,1.7,3.7,4,4.4,7l-6.5,1.2c-0.5-1.6-1.3-2.9-2.6-3.8s-2.8-1.4-4.7-1.4c-2.9,0-5.2,0.9-6.9,2.7
		c-1.7,1.8-2.5,4.5-2.5,8.1c0,3.9,0.9,6.8,2.6,8.7c1.7,1.9,4,2.9,6.8,2.9c1.4,0,2.8-0.3,4.1-0.8c1.4-0.5,2.6-1.2,3.6-2v-4.1H411.3z"
		/>
	<path class="st3" d="M431.5,293.6V261h24.2v5.5h-17.6v7.2h16.4v5.5h-16.4v8.9h18.2v5.5H431.5z"/>
	<path class="st3" d="M461.9,293.6V261h6.4l13.3,21.8V261h6.1v32.6h-6.6L468,272.4v21.2H461.9z"/>
	<path class="st3" d="M515.6,281.6l6.4,2c-1,3.6-2.6,6.2-4.9,7.9c-2.3,1.7-5.2,2.6-8.7,2.6c-4.3,0-7.9-1.5-10.7-4.4s-4.2-7-4.2-12.1
		c0-5.4,1.4-9.6,4.2-12.6s6.5-4.5,11-4.5c4,0,7.2,1.2,9.7,3.5c1.5,1.4,2.6,3.4,3.3,6l-6.5,1.6c-0.4-1.7-1.2-3-2.4-4
		c-1.2-1-2.7-1.5-4.5-1.5c-2.4,0-4.4,0.9-5.9,2.6c-1.5,1.7-2.3,4.5-2.3,8.4c0,4.1,0.7,7.1,2.2,8.8c1.5,1.7,3.4,2.6,5.8,2.6
		c1.7,0,3.3-0.6,4.5-1.7S515,284,515.6,281.6z"/>
	<path class="st3" d="M527.4,293.6V261h6.6v32.6H527.4z"/>
	<path class="st3" d="M569.6,293.6h-7.2l-2.8-7.4h-13l-2.7,7.4h-7l12.7-32.6h7L569.6,293.6z M557.5,280.7l-4.5-12.1l-4.4,12.1H557.5
		z"/>
</g>
<g>
	<g>
		<path class="st3" d="M143.2,493.6H134l-3.7-9.5h-16.7l-3.5,9.5h-9l16.3-41.8h8.9L143.2,493.6z M127.6,477l-5.8-15.5l-5.7,15.5
			H127.6z"/>
		<path class="st3" d="M147.7,493.6v-41.8h17.8c4.5,0,7.7,0.4,9.7,1.1s3.6,2.1,4.9,4c1.2,1.9,1.8,4.1,1.8,6.6c0,3.1-0.9,5.7-2.8,7.8
			c-1.8,2-4.6,3.3-8.3,3.9c1.8,1.1,3.3,2.2,4.5,3.5s2.8,3.5,4.8,6.8l5.1,8.2h-10.1l-6.1-9.1c-2.2-3.3-3.7-5.3-4.5-6.2
			c-0.8-0.8-1.6-1.4-2.5-1.7c-0.9-0.3-2.3-0.5-4.3-0.5h-1.7v17.5H147.7z M156.1,469.5h6.2c4.1,0,6.6-0.2,7.6-0.5
			c1-0.3,1.8-0.9,2.4-1.8c0.6-0.8,0.9-1.9,0.9-3.1c0-1.4-0.4-2.5-1.1-3.4c-0.8-0.9-1.8-1.4-3.2-1.6c-0.7-0.1-2.7-0.1-6.2-0.1h-6.6
			V469.5z"/>
		<path class="st3" d="M223.5,488.3c2.1,1.5,4.3,2.7,6.8,3.5l-3.1,6c-1.3-0.4-2.5-0.9-3.7-1.6c-0.3-0.1-2.1-1.4-5.6-3.7
			c-2.7,1.2-5.8,1.8-9.1,1.8c-6.4,0-11.5-1.9-15.1-5.7c-3.6-3.8-5.5-9.1-5.5-16c0-6.8,1.8-12.1,5.5-15.9c3.7-3.8,8.6-5.7,14.9-5.7
			c6.2,0,11.1,1.9,14.8,5.7c3.6,3.8,5.5,9.1,5.5,15.9c0,3.6-0.5,6.8-1.5,9.5C226.4,484.3,225.2,486.3,223.5,488.3z M216.7,483.5
			c1.1-1.3,1.9-2.8,2.4-4.6s0.8-3.9,0.8-6.2c0-4.8-1.1-8.4-3.2-10.8s-4.9-3.6-8.4-3.6c-3.4,0-6.2,1.2-8.4,3.6s-3.2,6-3.2,10.8
			c0,4.9,1.1,8.5,3.2,11s4.8,3.6,8.1,3.6c1.2,0,2.4-0.2,3.5-0.6c-1.7-1.1-3.5-2-5.2-2.6l2.4-4.8
			C211.5,480.2,214.2,481.6,216.7,483.5z"/>
		<path class="st3" d="M235.3,451.8h8.4v22.7c0,3.6,0.1,5.9,0.3,7c0.4,1.7,1.2,3.1,2.6,4.1s3.2,1.6,5.6,1.6c2.4,0,4.2-0.5,5.4-1.5
			c1.2-1,2-2.2,2.2-3.6c0.2-1.4,0.4-3.8,0.4-7.1v-23.1h8.4v22c0,5-0.2,8.6-0.7,10.6c-0.5,2.1-1.3,3.8-2.5,5.3
			c-1.2,1.4-2.9,2.6-4.9,3.4c-2.1,0.8-4.7,1.3-8,1.3c-4,0-7-0.5-9.1-1.4c-2.1-0.9-3.7-2.1-4.9-3.6c-1.2-1.5-2-3-2.4-4.6
			c-0.6-2.4-0.8-5.9-0.8-10.6V451.8z"/>
		<path class="st3" d="M277.3,493.6v-41.8h8.4v41.8H277.3z"/>
		<path class="st3" d="M303.2,493.6v-34.8h-12.4v-7.1H324v7.1h-12.4v34.8H303.2z"/>
		<path class="st3" d="M329.5,493.6v-41.8h31v7.1h-22.6v9.3h21v7h-21v11.4h23.4v7H329.5z"/>
		<path class="st3" d="M395.2,478.2l8.2,2.6c-1.3,4.6-3.3,8-6.3,10.2c-2.9,2.2-6.6,3.3-11.1,3.3c-5.6,0-10.1-1.9-13.7-5.7
			s-5.4-9-5.4-15.6c0-7,1.8-12.4,5.4-16.2c3.6-3.9,8.3-5.8,14.2-5.8c5.1,0,9.3,1.5,12.5,4.5c1.9,1.8,3.3,4.4,4.3,7.7l-8.4,2
			c-0.5-2.2-1.5-3.9-3.1-5.1s-3.5-1.9-5.7-1.9c-3.1,0-5.6,1.1-7.5,3.3c-1.9,2.2-2.9,5.8-2.9,10.8c0,5.3,1,9.1,2.9,11.3
			s4.4,3.4,7.4,3.4c2.2,0,4.2-0.7,5.8-2.1C393.4,483.5,394.5,481.3,395.2,478.2z"/>
		<path class="st3" d="M420.1,493.6v-34.8h-12.4v-7.1h33.2v7.1h-12.4v34.8H420.1z"/>
		<path class="st3" d="M446.3,451.8h8.4v22.7c0,3.6,0.1,5.9,0.3,7c0.4,1.7,1.2,3.1,2.6,4.1s3.2,1.6,5.6,1.6c2.4,0,4.2-0.5,5.4-1.5
			c1.2-1,2-2.2,2.2-3.6c0.2-1.4,0.4-3.8,0.4-7.1v-23.1h8.4v22c0,5-0.2,8.6-0.7,10.6c-0.5,2.1-1.3,3.8-2.5,5.3
			c-1.2,1.4-2.9,2.6-4.9,3.4c-2.1,0.8-4.7,1.3-8,1.3c-4,0-7-0.5-9.1-1.4c-2.1-0.9-3.7-2.1-4.9-3.6c-1.2-1.5-2-3-2.4-4.6
			c-0.6-2.4-0.8-5.9-0.8-10.6V451.8z"/>
		<path class="st3" d="M488.6,493.6v-41.8h17.8c4.5,0,7.7,0.4,9.7,1.1s3.6,2.1,4.9,4c1.2,1.9,1.8,4.1,1.8,6.6c0,3.1-0.9,5.7-2.8,7.8
			c-1.8,2-4.6,3.3-8.3,3.9c1.8,1.1,3.3,2.2,4.5,3.5s2.8,3.5,4.8,6.8l5.1,8.2h-10.1l-6.1-9.1c-2.2-3.3-3.7-5.3-4.5-6.2
			c-0.8-0.8-1.6-1.4-2.5-1.7c-0.9-0.3-2.3-0.5-4.3-0.5h-1.7v17.5H488.6z M497.1,469.5h6.2c4.1,0,6.6-0.2,7.6-0.5
			c1-0.3,1.8-0.9,2.4-1.8c0.6-0.8,0.9-1.9,0.9-3.1c0-1.4-0.4-2.5-1.1-3.4c-0.8-0.9-1.8-1.4-3.2-1.6c-0.7-0.1-2.7-0.1-6.2-0.1h-6.6
			V469.5z"/>
		<path class="st3" d="M568.5,493.6h-9.2l-3.7-9.5H539l-3.5,9.5h-9l16.3-41.8h8.9L568.5,493.6z M553,477l-5.8-15.5l-5.7,15.5H553z"
			/>
		<path class="st3" d="M142.4,558.6l-4.9,6.2c-2.4-1.2-4.7-2.8-6.8-4.8c-1.7,1.5-3.5,2.6-5.4,3.4c-1.9,0.7-4.2,1.1-6.8,1.1
			c-5.2,0-9.1-1.5-11.8-4.4c-2-2.3-3.1-4.9-3.1-7.8c0-2.7,0.8-5.1,2.4-7.2c1.6-2.1,4-4,7.2-5.6c-1.4-1.7-2.5-3.3-3.2-4.8
			c-0.7-1.5-1.1-3-1.1-4.4c0-2.5,1-4.7,3-6.4c2-1.8,4.9-2.6,8.7-2.6c3.6,0,6.4,0.9,8.5,2.8s3.1,4.1,3.1,6.8c0,1.7-0.5,3.3-1.5,4.8
			c-1,1.5-3,3.2-6.1,5.2l5.8,7.7c0.7-1.2,1.3-2.8,1.8-4.8l7.2,1.7c-0.7,2.6-1.4,4.4-1.9,5.6c-0.5,1.2-1.1,2.2-1.7,3
			c0.9,0.8,2,1.8,3.5,2.8C140.7,557.6,141.8,558.3,142.4,558.6z M117.5,544.6c-1.8,0.9-3.2,2.1-4.1,3.4c-0.9,1.3-1.4,2.7-1.4,4
			c0,1.7,0.6,3.1,1.7,4.2c1.1,1.1,2.6,1.6,4.6,1.6c1.3,0,2.5-0.2,3.6-0.7s2.4-1.3,3.8-2.5L117.5,544.6z M120.6,535.9l2.2-1.7
			c1.6-1.2,2.4-2.5,2.4-3.7c0-1-0.4-1.9-1.2-2.6c-0.8-0.7-1.8-1.1-3.1-1.1c-1.3,0-2.3,0.3-3,1c-0.7,0.6-1.1,1.4-1.1,2.2
			c0,1,0.6,2.2,1.8,3.6L120.6,535.9z"/>
		<path class="st3" d="M184.9,548.4l7.8,2.6c-1.2,4.6-3.2,8-6,10.2c-2.8,2.2-6.3,3.3-10.6,3.3c-5.3,0-9.6-1.9-13-5.7
			c-3.4-3.8-5.1-9-5.1-15.6c0-7,1.7-12.4,5.1-16.2c3.4-3.9,7.9-5.8,13.5-5.8c4.9,0,8.8,1.5,11.8,4.5c1.8,1.8,3.2,4.4,4.1,7.7l-7.9,2
			c-0.5-2.2-1.5-3.9-2.9-5.1s-3.3-1.9-5.4-1.9c-2.9,0-5.3,1.1-7.2,3.3c-1.8,2.2-2.8,5.8-2.8,10.8c0,5.3,0.9,9.1,2.7,11.3
			c1.8,2.2,4.2,3.4,7,3.4c2.1,0,4-0.7,5.5-2.1C183.2,553.7,184.3,551.4,184.9,548.4z"/>
		<path class="st3" d="M194.7,543.1c0-4.3,0.6-7.8,1.8-10.7c0.9-2.1,2.1-4,3.7-5.7s3.3-2.9,5.1-3.8c2.5-1.1,5.3-1.7,8.6-1.7
			c5.9,0,10.5,1.9,14.1,5.7c3.5,3.8,5.3,9.1,5.3,16c0,6.8-1.7,12-5.2,15.9c-3.5,3.8-8.2,5.7-14,5.7c-5.9,0-10.6-1.9-14.1-5.7
			C196.4,555,194.7,549.7,194.7,543.1z M202.9,542.8c0,4.7,1,8.3,3.1,10.8c2.1,2.4,4.7,3.7,7.9,3.7s5.8-1.2,7.9-3.6
			c2.1-2.4,3.1-6.1,3.1-10.9c0-4.8-1-8.4-3-10.7s-4.7-3.5-8-3.5s-6,1.2-8,3.6C203.9,534.4,202.9,538,202.9,542.8z"/>
		<path class="st3" d="M236.2,563.7v-41.8h7.8l16.3,27.9v-27.9h7.5v41.8h-8.1l-16-27.3v27.3H236.2z"/>
		<path class="st3" d="M270.9,550.1l7.8-0.8c0.5,2.8,1.4,4.8,2.9,6.1c1.4,1.3,3.4,1.9,5.8,1.9c2.6,0,4.5-0.6,5.8-1.7
			c1.3-1.2,2-2.5,2-4c0-1-0.3-1.8-0.8-2.5c-0.6-0.7-1.5-1.3-2.9-1.8c-0.9-0.3-3.1-1-6.4-1.8c-4.3-1.1-7.3-2.5-9.1-4.1
			c-2.4-2.3-3.7-5.1-3.7-8.4c0-2.1,0.6-4.1,1.7-6c1.1-1.9,2.8-3.3,5-4.2c2.2-1,4.8-1.5,7.8-1.5c5,0,8.7,1.2,11.3,3.5
			c2.5,2.3,3.8,5.4,4,9.2l-8,0.4c-0.3-2.2-1.1-3.7-2.2-4.6c-1.1-0.9-2.8-1.4-5.1-1.4c-2.3,0-4.2,0.5-5.5,1.5
			c-0.8,0.6-1.3,1.5-1.3,2.6c0,1,0.4,1.8,1.2,2.5c1,0.9,3.5,1.8,7.4,2.8c3.9,1,6.8,2,8.7,3c1.9,1,3.3,2.5,4.4,4.3
			c1.1,1.8,1.6,4,1.6,6.7c0,2.4-0.6,4.6-1.9,6.7c-1.3,2.1-3.1,3.6-5.4,4.7c-2.3,1-5.2,1.5-8.6,1.5c-5,0-8.9-1.2-11.6-3.7
			C273,558.4,271.4,554.8,270.9,550.1z"/>
		<path class="st3" d="M315.6,563.7V529h-11.8v-7.1h31.6v7.1h-11.8v34.8H315.6z"/>
		<path class="st3" d="M337.2,563.7v-41.8h16.9c4.2,0,7.3,0.4,9.3,1.1s3.5,2.1,4.6,4c1.2,1.9,1.7,4.1,1.7,6.6c0,3.1-0.9,5.7-2.6,7.8
			c-1.8,2-4.4,3.3-7.9,3.9c1.7,1.1,3.2,2.2,4.3,3.5c1.1,1.3,2.7,3.5,4.6,6.8l4.9,8.2h-9.6l-5.8-9.1c-2.1-3.3-3.5-5.3-4.2-6.2
			c-0.8-0.8-1.6-1.4-2.4-1.7c-0.9-0.3-2.2-0.5-4-0.5h-1.6v17.5H337.2z M345.3,539.6h5.9c3.9,0,6.3-0.2,7.2-0.5s1.7-0.9,2.3-1.8
			c0.5-0.8,0.8-1.9,0.8-3.1c0-1.4-0.4-2.5-1.1-3.4c-0.7-0.9-1.7-1.4-3-1.6c-0.7-0.1-2.6-0.1-5.9-0.1h-6.3V539.6z"/>
		<path class="st3" d="M373.9,521.9h8v22.7c0,3.6,0.1,5.9,0.3,7c0.3,1.7,1.2,3.1,2.5,4.1c1.3,1,3.1,1.6,5.3,1.6c2.3,0,4-0.5,5.2-1.5
			c1.2-1,1.9-2.2,2.1-3.6c0.2-1.4,0.4-3.8,0.4-7.1v-23.1h8v22c0,5-0.2,8.6-0.7,10.6c-0.4,2.1-1.2,3.8-2.4,5.3
			c-1.2,1.4-2.7,2.6-4.7,3.4s-4.5,1.3-7.6,1.3c-3.8,0-6.7-0.5-8.6-1.4c-2-0.9-3.5-2.1-4.7-3.6s-1.9-3-2.2-4.6
			c-0.5-2.4-0.8-5.9-0.8-10.6V521.9z"/>
		<path class="st3" d="M436.2,548.4l7.8,2.6c-1.2,4.6-3.2,8-6,10.2c-2.8,2.2-6.3,3.3-10.6,3.3c-5.3,0-9.6-1.9-13-5.7
			c-3.4-3.8-5.1-9-5.1-15.6c0-7,1.7-12.4,5.1-16.2c3.4-3.9,7.9-5.8,13.5-5.8c4.9,0,8.8,1.5,11.8,4.5c1.8,1.8,3.2,4.4,4.1,7.7l-7.9,2
			c-0.5-2.2-1.5-3.9-2.9-5.1s-3.3-1.9-5.4-1.9c-2.9,0-5.3,1.1-7.2,3.3c-1.8,2.2-2.8,5.8-2.8,10.8c0,5.3,0.9,9.1,2.7,11.3
			c1.8,2.2,4.2,3.4,7,3.4c2.1,0,4-0.7,5.5-2.1C434.4,553.7,435.5,551.4,436.2,548.4z"/>
		<path class="st3" d="M472.9,548.4l7.8,2.6c-1.2,4.6-3.2,8-6,10.2c-2.8,2.2-6.3,3.3-10.6,3.3c-5.3,0-9.6-1.9-13-5.7
			c-3.4-3.8-5.1-9-5.1-15.6c0-7,1.7-12.4,5.1-16.2c3.4-3.9,7.9-5.8,13.5-5.8c4.9,0,8.8,1.5,11.8,4.5c1.8,1.8,3.2,4.4,4.1,7.7l-7.9,2
			c-0.5-2.2-1.5-3.9-2.9-5.1s-3.3-1.9-5.4-1.9c-2.9,0-5.3,1.1-7.2,3.3c-1.8,2.2-2.8,5.8-2.8,10.8c0,5.3,0.9,9.1,2.7,11.3
			c1.8,2.2,4.2,3.4,7,3.4c2.1,0,4-0.7,5.5-2.1C471.2,553.7,472.3,551.4,472.9,548.4z"/>
		<path class="st3" d="M484,563.7v-41.8h8v41.8H484z"/>
		<path class="st3" d="M494.8,543.1c0-4.3,0.6-7.8,1.8-10.7c0.9-2.1,2.1-4,3.7-5.7s3.3-2.9,5.1-3.8c2.5-1.1,5.3-1.7,8.6-1.7
			c5.9,0,10.5,1.9,14.1,5.7c3.5,3.8,5.3,9.1,5.3,16c0,6.8-1.7,12-5.2,15.9c-3.5,3.8-8.2,5.7-14,5.7c-5.9,0-10.6-1.9-14.1-5.7
			C496.5,555,494.8,549.7,494.8,543.1z M503,542.8c0,4.7,1,8.3,3.1,10.8c2.1,2.4,4.7,3.7,7.9,3.7s5.8-1.2,7.9-3.6
			c2.1-2.4,3.1-6.1,3.1-10.9c0-4.8-1-8.4-3-10.7s-4.7-3.5-8-3.5s-6,1.2-8,3.6C504,534.4,503,538,503,542.8z M509.1,519.5l3.7-8.5
			h8.5l-7.5,8.5H509.1z"/>
		<path class="st3" d="M536.3,563.7v-41.8h7.8l16.3,27.9v-27.9h7.5v41.8h-8.1l-16-27.3v27.3H536.3z"/>
	</g>
</g>
<rect x="144.6" y="132.8" class="st3" width="99.3" height="99.3"/>
<g>
	<path class="st0" d="M8.6,333.8L333.8,8.6L659,333.8 M644.9,333.8L333.8,22.8L22.8,333.8"/>
</g>
<rect x="144.6" y="78.8" class="st1" width="174.1" height="54"/>
</svg>
