<?xml version="1.0" encoding="utf-8"?>
<!-- Generator: Adobe Illustrator 23.1.1, SVG Export Plug-In . SVG Version: 6.00 Build 0)  -->
<svg version="1.1" id="Capa_1" xmlns="http://www.w3.org/2000/svg" xmlns:xlink="http://www.w3.org/1999/xlink" x="0px" y="0px"
	 viewBox="0 0 78.5 45.5" style="enable-background:new 0 0 78.5 45.5;" xml:space="preserve">
<style type="text/css">
	.st0{fill:#333333;}
	.st1{fill:#F882BF;}
</style>
<path class="st0" d="M6.8,41.2c0,0.5-0.2,0.9-0.5,1.2c-0.3,0.3-0.7,0.4-1.2,0.4H3.5V42h1.6c0.3,0,0.5-0.1,0.6-0.2
	C5.9,41.6,6,41.4,6,41.2c0-0.2-0.1-0.4-0.3-0.6c-0.2-0.1-0.4-0.2-0.6-0.2H2.6V44H1.8v-4.4H5c0.5,0,0.9,0.1,1.2,0.4
	C6.6,40.3,6.8,40.7,6.8,41.2"/>
<path class="st0" d="M13.9,44h-1.1l-1.2-1.2h-1.2V42H12c0.3,0,0.5-0.1,0.7-0.2c0.2-0.1,0.3-0.4,0.3-0.6c0-0.6-0.3-0.8-1-0.8H9.4V44
	H8.7v-4.4h3.2c0.6,0,1,0.1,1.4,0.4c0.4,0.3,0.6,0.7,0.6,1.2c0,0.4-0.1,0.7-0.3,1c-0.2,0.3-0.5,0.4-0.9,0.5L13.9,44z"/>
<path class="st0" d="M21.1,41.8c0,0.7-0.2,1.2-0.6,1.6c-0.4,0.4-1,0.6-1.6,0.6h-1.2c-0.6,0-1.2-0.2-1.6-0.6c-0.4-0.4-0.6-1-0.6-1.6
	c0-0.6,0.2-1.2,0.6-1.6c0.4-0.4,1-0.6,1.6-0.6h1.2c0.7,0,1.2,0.2,1.6,0.6C20.9,40.6,21.1,41.1,21.1,41.8 M20.4,41.8
	c0-0.4-0.1-0.8-0.4-1c-0.3-0.3-0.6-0.4-1.1-0.4h-1.2c-0.4,0-0.8,0.1-1,0.4c-0.3,0.3-0.4,0.6-0.4,1c0,0.4,0.1,0.8,0.4,1
	c0.3,0.3,0.6,0.4,1,0.4h1.2c0.4,0,0.8-0.1,1.1-0.4C20.2,42.6,20.4,42.3,20.4,41.8"/>
<path class="st0" d="M27.7,41.8c0,0.7-0.2,1.2-0.6,1.6c-0.4,0.4-1,0.6-1.6,0.6h-2.5v-4.4h2.5c0.7,0,1.2,0.2,1.6,0.6
	C27.5,40.6,27.7,41.1,27.7,41.8 M26.9,41.8c0-0.4-0.1-0.8-0.4-1c-0.3-0.3-0.6-0.4-1-0.4h-1.7v2.9h1.7c0.4,0,0.8-0.1,1-0.4
	C26.8,42.6,26.9,42.3,26.9,41.8"/>
<path class="st0" d="M34.7,42c0,0.7-0.2,1.2-0.6,1.6c-0.4,0.3-0.9,0.4-1.7,0.4h-0.3c-0.7,0-1.3-0.1-1.7-0.4
	c-0.4-0.3-0.6-0.8-0.6-1.6v-2.4h0.8V42c0,0.5,0.2,0.9,0.5,1.1c0.2,0.1,0.7,0.2,1.3,0.2c0.5,0,0.9-0.1,1.1-0.2c0.3-0.2,0.4-0.5,0.4-1
	v-2.4h0.8V42z"/>
<path class="st0" d="M41.7,44h-2.5c-0.6,0-1.2-0.2-1.6-0.6c-0.4-0.4-0.6-1-0.6-1.6c0-0.6,0.2-1.2,0.6-1.6c0.4-0.4,0.9-0.6,1.6-0.6
	h2.5v0.8h-2.5c-0.4,0-0.8,0.1-1,0.4c-0.3,0.3-0.4,0.6-0.4,1c0,0.4,0.1,0.8,0.4,1c0.3,0.3,0.6,0.4,1,0.4h2.5V44z"/>
<path class="st0" d="M48.7,44h-2.5c-0.6,0-1.2-0.2-1.6-0.6c-0.4-0.4-0.6-1-0.6-1.6c0-0.6,0.2-1.2,0.6-1.6c0.4-0.4,0.9-0.6,1.6-0.6
	h2.5v0.8h-2.5c-0.4,0-0.8,0.1-1,0.4c-0.3,0.3-0.4,0.6-0.4,1c0,0.4,0.1,0.8,0.4,1s0.6,0.4,1,0.4h2.5V44z"/>
<rect x="50.6" y="39.6" class="st0" width="0.8" height="4.4"/>
<path class="st0" d="M59,41.8c0,0.7-0.2,1.2-0.6,1.6c-0.4,0.4-1,0.6-1.6,0.6h-1.2c-0.6,0-1.2-0.2-1.6-0.6c-0.4-0.4-0.6-1-0.6-1.6
	c0-0.6,0.2-1.2,0.6-1.6c0.4-0.4,1-0.6,1.6-0.6h1.2c0.7,0,1.2,0.2,1.6,0.6C58.8,40.6,59,41.1,59,41.8 M58.2,41.8c0-0.4-0.1-0.8-0.4-1
	c-0.3-0.3-0.6-0.4-1.1-0.4h-1.2c-0.4,0-0.8,0.1-1,0.4c-0.3,0.3-0.4,0.6-0.4,1c0,0.4,0.1,0.8,0.4,1c0.3,0.3,0.6,0.4,1,0.4h1.2
	c0.4,0,0.8-0.1,1.1-0.4S58.2,42.3,58.2,41.8"/>
<path class="st0" d="M64.8,43.6c0,0.3-0.1,0.4-0.3,0.4c-0.1,0-0.3-0.1-0.5-0.3L61.2,41V44h-0.8v-4c0-0.1,0-0.2,0.1-0.3
	c0.1-0.1,0.1-0.1,0.2-0.1c0.1,0,0.3,0.1,0.4,0.2l2.8,2.8v-3.1h0.8V43.6z"/>
<path class="st0" d="M70.4,44h-3.8v-4.4h3.8v0.8h-3v2.9h3V44z M70.2,42.2h-2.1v-0.8h2.1V42.2z"/>
<path class="st0" d="M76.8,42.7c0,0.4-0.1,0.8-0.4,1c-0.3,0.2-0.6,0.4-1.1,0.4h-3.4v-0.8h3.4c0.2,0,0.4,0,0.5-0.1
	c0.2-0.1,0.3-0.3,0.3-0.5c0-0.2-0.1-0.4-0.3-0.5c-0.1-0.1-0.3-0.1-0.5-0.1h-2.1c-0.4,0-0.7-0.1-1-0.3c-0.3-0.2-0.4-0.5-0.4-0.9
	c0-0.4,0.1-0.7,0.4-0.9c0.3-0.2,0.6-0.3,1-0.3h3.3v0.8h-3.3c-0.1,0-0.3,0-0.4,0.1c-0.1,0.1-0.2,0.2-0.2,0.3c0,0.1,0.1,0.3,0.2,0.3
	c0.1,0.1,0.2,0.1,0.4,0.1h2.1c0.4,0,0.8,0.1,1.1,0.4C76.7,41.9,76.8,42.2,76.8,42.7"/>
<path class="st1" d="M72.1,20.5c-0.1-0.3-0.3-0.1-0.5,0.5c-0.1,0.3-0.1,0.5-0.2,0.6c0,0-0.1,0.2-0.1,0.4c-0.3,1.3-0.7,2.5-1.2,3.7
	c-0.5,1.2-1.1,2.3-1.8,3.4c-0.5,0.8-1.1,1.5-1.7,2.1c-0.3,0.3-0.6,0.5-0.9,0.5c-0.3,0-0.5-0.2-0.8-0.5c-0.2-0.3-0.4-0.6-0.6-0.9
	c-0.2-0.3-0.3-0.6-0.4-0.9c-0.3-0.8-0.4-1.6-0.3-2.4c0-0.8,0.1-1.4,0.3-1.9c0.1-0.3,0.2-0.6,0.4-1c0.1-0.3,0.4-0.5,0.8-0.5
	c0.3,0.1,0.6,0,0.9-0.1c0.3-0.1,0.6-0.2,0.8-0.4c0.3-0.2,0.5-0.3,0.7-0.5c0.2-0.2,0.3-0.3,0.4-0.4c0.4-0.7,0.7-1.3,0.7-1.9
	c0.1-0.6,0.1-1.3,0-1.9c-0.1-0.2-0.1-0.5-0.3-0.7c-0.1-0.2-0.3-0.4-0.4-0.6c-0.1-0.2-0.4-0.3-0.7-0.5c-0.3-0.2-0.7-0.3-1.1-0.3
	c-0.4,0-0.9,0-1.3,0.2c-0.5,0.2-0.9,0.5-1.4,1c-1,1.2-1.7,2.4-2.2,3.5c-0.5,1.2-0.8,2.5-1,4.1c-0.1,1.1,0,2.1,0.1,3
	c-0.1,0.5-0.3,1-0.4,1.5c-0.4,1.3-0.9,2.6-1.4,3.6c-0.2,0.3-0.4,0.4-0.6,0.4c-0.2-0.1-0.3-0.2-0.4-0.5c-0.1-0.1-0.1-0.4-0.2-0.9
	c-0.1-0.5-0.1-0.9-0.2-1.4c-0.1-0.5-0.1-1-0.2-1.4c-0.1-0.4-0.1-0.7-0.1-0.9c-0.1-0.6-0.1-1.1-0.1-1.7v-1.7c0-0.5,0-1,0-1.4
	c0-0.5,0-1,0.1-1.4c0.1-1,0.3-1.9,0.5-2.9c0.2-0.9,0.4-1.9,0.6-2.8c0-0.1,0.1-0.2,0.1-0.3c0.1-0.1,0.1-0.2,0.2-0.3
	c0.9-1.2,1.8-2.5,2.5-3.9c0.7-1.3,1.3-2.7,1.7-4.3c0.1-0.4,0.3-0.9,0.5-1.6C63,5.6,63.2,5,63.4,4.4c0.1-0.6,0.2-1.2,0.3-1.7
	c0-0.5-0.1-0.9-0.3-1.2c-0.1-0.1-0.3-0.3-0.6-0.4c-0.3-0.1-0.7-0.1-1.2,0.1c-0.5,0.2-1,0.5-1.6,1.1c-0.6,0.6-1.3,1.4-2,2.6
	c-1.1,2-2,4-2.6,6.1c-0.3,0.9-0.5,1.8-0.7,2.7c-0.2,0.9-0.4,1.8-0.6,2.7c-0.1,0.5-0.4,0.8-1,0.8c-0.5-0.2-1.1-0.2-2,0.1
	c-0.9,0.3-1.7,0.8-2.6,1.7c-0.9,0.9-1.7,2.1-2.4,3.7c-0.7,1.6-1.1,3.5-1.3,5.9c0,0.1,0,0.1,0,0.2c-0.3,0.9-0.6,1.6-0.9,2.3
	c-0.3,0.8-0.6,1.4-0.8,1.9c-0.2,0.5-0.4,0.7-0.4,0.7c-0.1,0-0.1-0.1-0.2-0.3c0-0.2-0.1-0.5-0.1-0.7c0-0.3,0-0.6,0-0.8v-0.5v-1.1
	c0-0.7,0-1.4,0-2.3c0-0.9,0.1-1.8,0.1-2.7c0.1-0.9,0.1-1.7,0.2-2.3c0.1-0.8,0.2-1.5,0.3-2.3c0.1-0.8,0.1-1.6,0.1-2.4
	c0-0.4-0.1-0.8-0.3-1.2c-0.2-0.4-0.5-0.7-1-0.8c-0.5-0.1-1-0.1-1.4,0.2c-0.4,0.3-0.8,0.6-1.1,0.9c-0.6,0.7-1,1.4-1.4,2.2
	c-0.3,0.8-0.7,1.6-0.9,2.4c-0.1,0.4-0.3,0.9-0.5,1.5c-0.2,0.6-0.4,1.1-0.6,1.6c-0.2,0.5-0.3,0.9-0.5,1.3c-0.1,0.4-0.3,0.6-0.3,0.6
	c-0.1,0-0.1-0.1-0.2-0.3c0-0.2-0.1-0.4-0.1-0.6c0-0.2,0-0.5-0.1-0.7c0-0.3,0-0.5,0-0.7c-0.1-0.9-0.1-1.9-0.1-2.8
	c0-0.9,0-1.9-0.1-2.8c-0.1-0.7-0.4-1.2-0.9-1.5c-0.6-0.4-1.1-0.4-1.7-0.2c0,0.2,0,0.4-0.1,0.7c-0.1,0.2-0.1,0.4-0.1,0.6
	c0,0-0.1,0-0.1,0c-0.4,0.1-0.7,0.3-1,0.3c-0.3,0.1-0.6,0.1-0.8,0.2c-0.2,0-0.4,0-0.6-0.1c-0.2-0.1-0.3-0.2-0.5-0.5
	c-0.1-0.2-0.3-0.6-0.4-1c-0.1-0.1-0.1-0.2-0.1-0.3c0-0.1-0.1-0.2-0.1-0.4c-0.5-1.1-1.3-1.8-2.4-2c-0.9-0.2-1.6,0-2,0.8
	c-0.1,0.2-0.2,0.5-0.2,0.7c0,0.2,0,0.4,0,0.6c0,0.2,0.1,0.3,0.1,0.5c0.1,0.1,0.1,0.2,0.1,0.3c-0.4-0.1-1,0-1.6,0.3
	c-0.6,0.3-1.3,0.8-1.9,1.6c-0.6,0.7-1.2,1.7-1.6,2.8c-0.4,1.2-0.7,2.5-0.7,4.1c0,0.8,0.1,1.5,0.4,2.2c0.1,0.2,0.1,0.3,0.2,0.5
	c-0.2,0.4-0.3,0.9-0.5,1.3c-0.3,0.8-0.6,1.6-1,2.4c-0.1,0.2-0.3,0.4-0.6,0.6c-0.3,0.2-0.6,0.2-0.8,0.2c-0.3,0-0.6-0.1-0.8-0.4
	c-0.3-0.2-0.5-0.5-0.7-0.7c-0.2-0.3-0.4-0.5-0.5-0.8c-0.1-0.3-0.2-0.4-0.3-0.5c-0.5-1.8-0.9-3.4-1-5c-0.1-1.5-0.1-3,0-4.3
	c0.1-1.3,0.3-2.5,0.6-3.5c0.3-1,0.5-1.8,0.7-2.5c0.4-1.1,0.8-2,1.3-2.6c0.5-0.6,0.9-1.1,1.3-1.4c0.4-0.3,0.7-0.5,1-0.5
	c0.3,0,0.4,0,0.5,0c0.4,0.3,0.6,0.8,0.5,1.3c-0.1,0.6-0.4,1-0.8,1.4c-0.2,0.1-0.4,0.3-0.6,0.4c-0.2,0.1-0.3,0.3-0.4,0.7
	c-0.1,0.3,0,0.5,0.2,0.5c0.2,0,0.5,0,0.8-0.2c0.6-0.3,1.1-0.6,1.4-1c0.4-0.4,0.6-0.8,0.8-1.3c0.2-0.5,0.2-0.9,0.2-1.4
	c0-0.5-0.1-1-0.3-1.5c-0.1-0.6-0.6-1-1.2-1.3C17.4,9,16.6,9,15.6,9.2c-0.9,0.2-2,0.6-3,1.3c-1.1,0.7-2,1.6-3,2.8
	c-0.9,1.2-1.7,2.7-2.3,4.5c-0.6,1.8-0.9,3.9-0.9,6.3c0,0.5,0,1.1,0.1,2c0.1,0.8,0.3,1.7,0.6,2.6c0.2,0.9,0.6,1.8,0.9,2.6
	c0.4,0.8,0.8,1.5,1.3,2c0.4,0.6,1,1.1,1.7,1.7c0.7,0.6,1.5,0.9,2.4,1.1c0.4,0.1,0.9,0.1,1.3,0.1c0.5,0,0.9-0.1,1.3-0.2
	c0.4-0.1,0.8-0.4,1.1-0.6c0.3-0.3,0.6-0.7,0.8-1.1c0.4-0.9,0.7-1.8,1-2.8c0.1-0.2,0.1-0.5,0.2-0.7c0.1,0.1,0.2,0.2,0.3,0.3
	c0.5,0.5,1.1,0.9,1.9,1.2c0.7,0.3,1.5,0.4,2.4,0.4c0.6,0,1.1-0.1,1.6-0.4c0.5-0.3,0.8-0.7,1.2-1.2c0.3-0.5,0.6-1,0.9-1.6
	c0.2-0.6,0.4-1.2,0.6-1.7c0.2-0.6,0.3-1,0.4-1.4c0.1-0.4,0.1-0.8,0.2-1.1c0-0.3,0.1-0.7,0.1-1c0-0.3,0.1-0.7,0.1-1.2
	c0.1-0.6,0.2-1,0.4-1.4c0.2-0.4,0.6-0.6,1.3-0.7c0.3,0,0.5-0.1,0.8-0.2c0,0.1,0,0.1,0,0.2c-0.1,0.8-0.2,1.8-0.3,2.8
	c-0.1,1,0,2.1,0.1,3.1c0.1,1,0.4,2,0.9,2.7c0.3,0.4,0.7,0.6,1.1,0.7c0.4,0.1,0.9,0.1,1.3,0c0.3-0.1,0.6-0.3,0.9-0.8
	c0.3-0.4,0.5-0.9,0.6-1.3c0-0.1,0.1-0.5,0.3-1c0.2-0.6,0.4-1.2,0.6-1.9c0.3-0.7,0.5-1.5,0.8-2.3c0.3-0.8,0.6-1.5,0.9-2.2
	c0.3-0.7,0.6-1.2,0.8-1.6c0.3-0.4,0.5-0.6,0.6-0.5c0,0.1-0.2,0.6-0.4,1.5c-0.3,0.9-0.5,2-0.8,3.4c-0.3,1.4-0.4,2.9-0.6,4.6
	c-0.1,1.7-0.1,3.4,0.2,5c0.1,0.6,0.3,1.1,0.6,1.6c0.2,0.4,0.6,0.8,1,1.1c0.5,0.3,1.1,0.5,1.8,0.5c0.5,0,0.9-0.2,1.2-0.6
	c0.4-0.4,0.7-0.8,0.9-1.4c0.3-0.5,0.5-1.1,0.6-1.6c0.2-0.5,0.3-0.9,0.4-1.3c0.1,0.3,0.2,0.5,0.4,0.7c0.5,0.8,1.1,1.4,1.8,1.8
	c0.7,0.4,1.4,0.6,2.1,0.6c0.7,0,1.3-0.1,1.7-0.4c0.2-0.1,0.4-0.3,0.5-0.5c0.2-0.4,0.5-0.8,0.7-1.2c0.2-0.4,0.5-0.8,0.7-1.2
	c0.1-0.2,0.2-0.4,0.3-0.6c0.1-0.1,0.2-0.1,0.5,0.3c0,0,0.1,0.2,0.3,0.6c0.1,0.4,0.3,0.8,0.5,1.2c0.2,0.5,0.3,0.9,0.5,1.3
	c0.2,0.4,0.3,0.6,0.3,0.6c0.1,0.1,0.1,0.2,0.2,0.3c0.1,0.2,0.2,0.3,0.4,0.4c0.2,0.1,0.4,0.3,0.6,0.4c0.2,0.1,0.5,0.2,0.9,0.2
	c0.7,0,1.3-0.2,1.7-0.7c0.4-0.5,0.8-1.2,1.1-2.2l0.5-2.7c0.3,0.7,0.8,1.3,1.5,2c0.7,0.6,1.4,0.9,2.4,0.9c0.9,0,1.7-0.3,2.3-0.9
	c0.7-0.7,1.4-1.5,1.8-2.3c0.5-0.9,0.9-1.7,1.3-2.6c0.3-0.7,0.6-1.5,0.9-2.3c0.3-0.8,0.6-1.5,0.8-2.1C72.1,21.5,72.2,20.8,72.1,20.5
	 M64.2,22.3c0.3-0.7,0.6-1.3,0.9-1.9c0.3-0.6,0.7-1.2,1-1.9c0.1-0.2,0.3-0.4,0.5-0.7c0.2-0.3,0.5-0.4,0.8-0.3
	c0.1,0.1,0.2,0.5,0.1,0.9c0,0.5-0.2,1.2-0.5,2c-0.2,0.5-0.5,0.9-0.7,1.2c-0.3,0.3-0.5,0.5-0.7,0.7c-0.2,0.2-0.4,0.3-0.6,0.3
	c-0.2,0.1-0.3,0.1-0.3,0.1c-0.2,0.1-0.4,0-0.5-0.1C64.1,22.7,64.1,22.5,64.2,22.3 M59.3,9.4c0.2-0.7,0.3-1.4,0.5-2.1
	c0.2-0.7,0.3-1.4,0.6-2.1c0.3-0.7,0.5-1.2,0.7-1.6c0.2-0.4,0.4-0.7,0.6-0.8c0.2-0.2,0.3-0.3,0.5-0.3c0.1,0.2,0.1,0.6,0.1,1.1
	c0,0.5-0.1,1.1-0.3,1.8c-0.2,0.7-0.4,1.4-0.7,2.2c-0.3,0.8-0.6,1.5-0.9,2.2c-0.3,0.7-0.6,1.3-1,1.9c-0.3,0.6-0.6,1-1,1.2L59.3,9.4z
	 M27.1,23.5c-0.1,0.6-0.3,1.2-0.4,1.9c-0.2,0.7-0.4,1.2-0.6,1.8c-0.1,0.1-0.2,0.4-0.3,0.7c-0.2,0.4-0.3,0.7-0.5,1.1
	c-0.2,0.4-0.4,0.7-0.7,1c-0.2,0.3-0.5,0.4-0.7,0.4c-0.4-0.1-0.6-0.3-0.8-0.7C23,29.3,23,28.8,23,28.2c0-0.6,0.1-1.2,0.2-1.9
	c0.1-0.7,0.3-1.4,0.6-2.1c0.2-0.7,0.5-1.3,0.8-1.9c0.3-0.6,0.6-1,0.9-1.3c0.3-0.3,0.6-0.5,0.9-0.5c0.3,0,0.5,0.1,0.7,0.3
	c0.2,0.2,0.3,0.6,0.3,1.1C27.3,22.3,27.2,22.9,27.1,23.5 M26.8,18.3c-0.3,0-0.5-0.1-0.7-0.2c-0.2-0.1-0.5-0.2-0.7-0.3
	c-0.2-0.1-0.4-0.4-0.5-0.6c0.7-0.4,1.2-0.5,1.8-0.2c0.5,0.3,0.8,0.8,0.9,1.6C27.2,18.4,27,18.3,26.8,18.3 M53.7,20.9
	c0,0.2-0.1,0.4-0.1,0.6c-0.1,0.7-0.3,1.3-0.4,1.9c-0.1,0.6-0.3,1.3-0.4,1.9c-0.1,0.5-0.2,0.9-0.3,1.3c-0.1,0.4-0.3,0.9-0.4,1.3
	c-0.2,0.6-0.4,1.1-0.6,1.6c-0.2,0.5-0.4,1.1-0.6,1.6c-0.1,0.3-0.2,0.5-0.4,0.7c-0.1,0.2-0.3,0.5-0.4,0.7c-0.2,0-0.3-0.1-0.4-0.4
	c-0.1-0.2-0.1-0.5-0.1-0.9c0-0.3,0-0.7,0-1.1v-1c0-0.7,0.1-1.4,0.3-2.2c0.2-1,0.5-1.9,0.7-2.9c0.2-1,0.5-1.9,0.8-2.9
	c0.1-0.3,0.2-0.6,0.4-0.9c0.2-0.3,0.4-0.6,0.6-0.9c0.1-0.1,0.2-0.2,0.3-0.3c0.2-0.1,0.3-0.1,0.4-0.1c0.3,0.1,0.4,0.2,0.5,0.4
	c0.1,0.2,0.2,0.4,0.2,0.6C53.7,20.4,53.7,20.6,53.7,20.9"/>
</svg>
