<svg xmlns="http://www.w3.org/2000/svg" xmlns:xlink="http://www.w3.org/1999/xlink" version="1.1" x="0px" y="0px" viewBox="0 0 46 80" style="enable-background:new 0 0 46 64;" xml:space="preserve"><g><path style="" d="M45,64V45V33V23c0-12.15-9.85-22-22-22h0   C10.85,1,1,10.85,1,23v13h5v13h16v14h-8" fill="none" stroke="#000000" stroke-width="2" stroke-miterlimit="10"/><line style="" x1="20" y1="49" x2="26" y2="49" fill="none" stroke="#000000" stroke-width="2" stroke-miterlimit="10"/><path style="" d="M37.831,16.089C37.93,15.741,38,15.38,38,15   c0-2.209-1.791-4-4-4c-0.353,0-0.689,0.06-1.015,0.146C32.987,11.096,33,11.05,33,11c0-2.209-1.791-4-4-4   c-0.83,0-1.6,0.253-2.239,0.685C26.215,6.126,24.746,5,23,5s-3.215,1.126-3.761,2.685C18.6,7.253,17.83,7,17,7   c-2.209,0-4,1.791-4,4c-2.209,0-4,1.791-4,4c0,0.38,0.07,0.741,0.169,1.089C7.359,16.472,6,18.076,6,20c0,2.209,1.791,4,4,4h27   c2.209,0,4-1.791,4-4C41,18.076,39.641,16.472,37.831,16.089z" fill="none" stroke="#000000" stroke-width="2" stroke-miterlimit="10"/><polyline style="" points="24,19.5 27,16.5 30,19.5  " fill="none" stroke="#000000" stroke-width="2" stroke-miterlimit="10"/><path style="" d="M27,16.5V26c0,1.105,0.895,2,2,2h8   c1.105,0,2,0.895,2,2v0c0,1.105-0.895,2-2,2H26c-1.105,0-2,0.895-2,2v0c0,1.105,0.895,2,2,2h8l3,3" fill="none" stroke="#000000" stroke-width="2" stroke-miterlimit="10"/><line style="" x1="11" y1="20" x2="13" y2="20" fill="none" stroke="#000000" stroke-width="2" stroke-miterlimit="10"/><line style="" x1="15" y1="20" x2="17" y2="20" fill="none" stroke="#000000" stroke-width="2" stroke-miterlimit="10"/><line style="" x1="19" y1="20" x2="21" y2="20" fill="none" stroke="#000000" stroke-width="2" stroke-miterlimit="10"/></g><text x="0" y="79" fill="#000000" font-size="5px" font-weight="bold" font-family="'Helvetica Neue', Helvetica, Arial-Unicode, Arial, Sans-serif">Created by Becris</text><text x="0" y="84" fill="#000000" font-size="5px" font-weight="bold" font-family="'Helvetica Neue', Helvetica, Arial-Unicode, Arial, Sans-serif">from the Noun Project</text></svg>