<?xml version="1.0" encoding="utf-8"?>
<!-- Generator: Adobe Illustrator 23.1.1, SVG Export Plug-In . SVG Version: 6.00 Build 0)  -->
<svg version="1.1" id="Capa_1" xmlns="http://www.w3.org/2000/svg" xmlns:xlink="http://www.w3.org/1999/xlink" x="0px" y="0px"
	 viewBox="0 0 500 500" style="enable-background:new 0 0 500 500;" xml:space="preserve">
<style type="text/css">
	.st0{fill:#32373C;}
</style>
<g id="W_Mark_2_">
	<path class="st0" d="M250.2,15.6c31.7,0,62.5,6.2,91.4,18.4c13.9,5.9,27.3,13.2,39.9,21.7c12.4,8.4,24.1,18.1,34.8,28.7
		c10.6,10.6,20.3,22.3,28.7,34.8c8.5,12.6,15.8,26,21.7,39.9c12.2,28.9,18.4,59.7,18.4,91.4s-6.2,62.5-18.4,91.4
		c-5.9,13.9-13.2,27.3-21.7,39.9c-8.4,12.4-18.1,24.1-28.7,34.8c-10.6,10.6-22.3,20.3-34.8,28.7c-12.6,8.5-26,15.8-39.9,21.7
		c-28.9,12.2-59.7,18.4-91.4,18.4c-31.7,0-62.5-6.2-91.4-18.4c-13.9-5.9-27.3-13.2-39.9-21.7c-12.4-8.4-24.1-18.1-34.8-28.7
		c-10.6-10.6-20.3-22.3-28.7-34.8c-8.5-12.6-15.8-26-21.7-39.9c-12.2-28.9-18.4-59.7-18.4-91.4s6.2-62.5,18.4-91.4
		c5.9-13.9,13.2-27.3,21.7-39.9c8.4-12.4,18.1-24.1,28.7-34.8c10.6-10.6,22.3-20.3,34.8-28.7c12.6-8.5,26-15.8,39.9-21.7
		C187.7,21.8,218.4,15.6,250.2,15.6 M250.2,0.6C112.2,0.6,0.3,112.4,0.3,250.4c0,138,111.9,249.8,249.8,249.8
		c138,0,249.8-111.9,249.8-249.8C500,112.4,388.1,0.6,250.2,0.6L250.2,0.6z"/>
	<path class="st0" d="M41.9,250.4c0,82.4,47.9,153.6,117.3,187.4L60,165.7C48.4,191.6,41.9,220.2,41.9,250.4z M390.7,239.9
		c0-25.7-9.2-43.6-17.2-57.4c-10.6-17.2-20.5-31.7-20.5-48.8c0-19.1,14.5-37,35-37c0.9,0,1.8,0.1,2.7,0.2
		c-37-33.9-86.4-54.7-140.6-54.7c-72.7,0-136.7,37.3-174,93.8c4.9,0.2,9.5,0.3,13.4,0.3c21.8,0,55.5-2.6,55.5-2.6
		c11.2-0.7,12.5,15.8,1.3,17.2c0,0-11.3,1.3-23.8,2l75.8,225.5L244,241.7l-32.4-88.9c-11.2-0.7-21.8-2-21.8-2
		c-11.2-0.7-9.9-17.8,1.3-17.2c0,0,34.4,2.6,54.8,2.6c21.8,0,55.5-2.6,55.5-2.6c11.2-0.7,12.5,15.8,1.3,17.2c0,0-11.3,1.3-23.8,2
		l75.2,223.8l21.5-68.1C385.1,278.8,390.7,257.7,390.7,239.9z M253.8,268.6l-62.5,181.5c18.7,5.5,38.4,8.5,58.8,8.5
		c24.2,0,47.5-4.2,69.1-11.8c-0.6-0.9-1.1-1.8-1.5-2.9L253.8,268.6z M432.9,150.5c0.9,6.6,1.4,13.7,1.4,21.4
		c0,21.1-4,44.9-15.8,74.6l-63.6,183.9c61.9-36.1,103.5-103.1,103.5-180C458.4,214.2,449.1,180.2,432.9,150.5z"/>
</g>
</svg>
